Coordinates
version=1
nRows=20
nColumns=63
inDegrees=yes

Units are S.I. units (second, meters, Newtons, ...)
If the header above contains a line with 'inDegrees', this indicates whether rotational values are in degrees (yes) or radians (no).

endheader
time	pelvis_tilt	pelvis_list	pelvis_rotation	pelvis_tx	pelvis_ty	pelvis_tz	hip_flexion_r	hip_adduction_r	hip_rotation_r	knee_angle_r	knee_angle_r_beta	ankle_angle_r	subtalar_angle_r	mtp_angle_r	hip_flexion_l	hip_adduction_l	hip_rotation_l	knee_angle_l	knee_angle_l_beta	ankle_angle_l	subtalar_angle_l	mtp_angle_l	L5_S1_Flex_Ext	L5_S1_Lat_Bending	L5_S1_axial_rotation	L4_L5_Flex_Ext	L4_L5_Lat_Bending	L4_L5_axial_rotation	L3_L4_Flex_Ext	L3_L4_Lat_Bending	L3_L4_axial_rotation	L2_L3_Flex_Ext	L2_L3_Lat_Bending	L2_L3_axial_rotation	L1_L2_Flex_Ext	L1_L2_Lat_Bending	L1_L2_axial_rotation	L1_T12_Flex_Ext	L1_T12_Lat_Bending	L1_T12_axial_rotation	Abs_r3	Abs_r2	Abs_r1	Abs_t1	Abs_t2	neck_flexion	neck_bending	neck_rotation	arm_flex_r	arm_add_r	arm_rot_r	elbow_flex_r	pro_sup_r	wrist_flex_r	wrist_dev_r	arm_flex_l	arm_add_l	arm_rot_l	elbow_flex_l	pro_sup_l	wrist_flex_l	wrist_dev_l
0.000000	-0.272139	-4.835403	93.028244	0.185811	0.495408	0.979042	3.936969	1.491488	-9.873142	12.098019	0.211150	45.709985	16.475430	0.000000	2.311946	1.988416	-4.882489	10.029033	0.175040	43.415548	-0.283418	0.000000	0.113257	0.363470	1.160826	0.210329	0.483416	1.233378	0.186070	0.883742	1.233378	0.129441	0.883742	1.015723	0.105170	0.741189	0.943171	0.064715	0.563016	0.870620	0.808982	4.111649	6.456167	0.000000	0.000000	23.236256	-6.531024	-5.145923	19.646946	-11.490694	70.512020	43.435985	71.556182	19.633038	6.769125	21.616888	-4.643284	73.816106	42.203978	62.619987	9.918666	8.010422
0.019231	-0.352793	-4.784543	93.642357	0.185627	0.494826	0.977249	3.557077	1.448734	-9.774086	12.024125	0.209861	45.394205	15.354848	0.000000	2.075893	1.884983	-5.678035	10.245447	0.178817	43.310865	1.625691	0.000000	0.131644	0.334771	1.171100	0.244476	0.445245	1.244294	0.216278	0.813962	1.244294	0.150456	0.813962	1.024712	0.122245	0.682665	0.951519	0.075221	0.518560	0.878325	0.940319	3.786997	6.513306	0.000000	0.000000	23.432188	-6.286250	-5.687174	19.584200	-11.718185	70.286819	43.546781	70.336601	19.846052	8.994702	21.683067	-4.873198	74.739509	42.569466	62.426201	8.958061	10.639934
0.038462	-0.422709	-4.732197	94.100624	0.185518	0.494342	0.976032	3.230743	1.413864	-9.688588	11.912445	0.207911	45.152335	14.524426	0.000000	1.912495	1.798851	-6.365591	10.455552	0.182484	43.272514	3.188615	0.000000	0.145509	0.313249	1.170209	0.270225	0.416621	1.243347	0.239057	0.761633	1.243347	0.166302	0.761633	1.023933	0.135120	0.638776	0.950795	0.083144	0.485222	0.877657	1.039357	3.543530	6.508350	0.000000	0.000000	23.501553	-6.039844	-5.910886	19.594555	-11.824414	70.256745	43.588096	69.344139	20.179774	10.701361	21.707969	-5.021029	75.321809	42.835021	61.998822	8.285734	12.612886
0.057692	-0.482280	-4.678225	94.418640	0.185474	0.493949	0.975321	2.952944	1.386546	-9.615890	11.768299	0.205396	44.977456	13.954729	0.000000	1.812722	1.728515	-6.951483	10.657193	0.186003	43.294730	4.436998	0.000000	0.155264	0.298220	1.159395	0.288341	0.396632	1.231857	0.255083	0.725091	1.231857	0.177451	0.725091	1.014471	0.144178	0.608130	0.942008	0.088718	0.461942	0.869546	1.109036	3.373521	6.448207	0.000000	0.000000	23.459697	-5.793540	-5.855530	19.661154	-11.823366	70.372207	43.563769	68.554371	20.589409	11.931668	21.696371	-5.097839	75.608495	42.999339	61.374516	7.864824	13.985383
0.076923	-0.531901	-4.622488	94.611999	0.185485	0.493640	0.975046	2.718659	1.366450	-9.555233	11.597008	0.202406	44.862650	13.616322	0.000000	1.767546	1.672472	-7.442040	10.848214	0.189337	43.371749	5.402479	0.000000	0.161320	0.289002	1.139900	0.299588	0.384372	1.211144	0.265033	0.702678	1.211144	0.184373	0.702678	0.997412	0.149802	0.589332	0.926169	0.092178	0.447663	0.854925	1.152295	3.269243	6.339781	0.000000	0.000000	23.321969	-5.549071	-5.559573	19.767140	-11.729030	70.583618	43.477641	67.942873	21.030159	12.728191	21.653054	-5.114690	75.645055	43.061114	60.589951	7.658470	14.813530
0.096154	-0.571968	-4.564845	94.696298	0.185542	0.493411	0.975135	2.522865	1.353244	-9.505860	11.403893	0.199035	44.800996	13.479770	0.000000	1.767935	1.629217	-7.843589	11.026462	0.192448	43.497805	6.116702	0.000000	0.164090	0.284911	1.112965	0.304731	0.378931	1.182526	0.269583	0.692732	1.182526	0.187538	0.692732	0.973845	0.152374	0.580990	0.904284	0.093761	0.441327	0.834724	1.172077	3.222969	6.189980	0.000000	0.000000	23.103716	-5.308169	-5.061486	19.895656	-11.555394	70.841389	43.333551	67.485220	21.457231	13.133499	21.582796	-5.082644	75.476978	43.019040	59.681794	7.629814	15.153431
0.115385	-0.602874	-4.505156	94.687131	0.185634	0.493254	0.975519	2.360539	1.346597	-9.467012	11.194273	0.195377	44.785577	13.515637	0.000000	1.804862	1.597246	-8.162458	11.189782	0.195299	43.667133	6.611309	0.000000	0.163984	0.285265	1.079833	0.304535	0.379402	1.147323	0.269409	0.693592	1.147323	0.187417	0.693592	0.944854	0.152276	0.581712	0.877365	0.093700	0.441875	0.809875	1.171322	3.226970	6.005710	0.000000	0.000000	22.820287	-5.072569	-4.399738	20.029846	-11.316444	71.095930	43.135339	67.156987	21.825828	13.190157	21.490377	-5.012763	75.149752	42.871812	58.686712	7.741995	15.061191
0.134615	-0.625015	-4.443281	94.600093	0.185751	0.493164	0.976125	2.226659	1.346178	-9.437931	10.973470	0.191523	44.809472	13.694490	0.000000	1.869295	1.575054	-8.404974	11.336020	0.197851	43.873968	6.917941	0.000000	0.161415	0.289380	1.041745	0.299763	0.384875	1.106855	0.265188	0.703598	1.106855	0.184481	0.703598	0.911527	0.149890	0.590103	0.846418	0.092232	0.448249	0.781309	1.152969	3.273520	5.793876	0.000000	0.000000	22.487030	-4.844002	-3.612796	20.152853	-11.026169	71.297653	42.886845	66.933750	22.091155	12.940735	21.380575	-4.916108	74.708864	42.618125	57.641371	7.958153	14.592915
0.153846	-0.638786	-4.379081	94.450779	0.185885	0.493135	0.976885	2.116203	1.351656	-9.417858	10.746804	0.187567	44.865764	13.986892	0.000000	1.952206	1.561139	-8.577467	11.463019	0.200067	44.112545	7.068240	0.000000	0.156794	0.296573	0.999943	0.291181	0.394442	1.062440	0.257596	0.721087	1.062440	0.179199	0.721087	0.874950	0.145598	0.604772	0.812454	0.089592	0.459391	0.749958	1.119961	3.354892	5.561385	0.000000	0.000000	22.119293	-4.624203	-2.739131	20.247820	-10.698555	71.396968	42.591909	66.791084	22.208415	12.427799	21.258171	-4.803742	74.199805	42.256673	56.582439	8.241428	13.804708
0.173077	-0.644581	-4.312414	94.254785	0.186024	0.493160	0.977726	2.024149	1.362699	-9.406034	10.519595	0.183602	44.947534	14.363408	0.000000	2.044565	1.553994	-8.686263	11.568627	0.201911	44.377099	7.093849	0.000000	0.150532	0.306161	0.955669	0.279553	0.407195	1.015398	0.247309	0.744401	1.015398	0.172043	0.744401	0.836210	0.139784	0.624324	0.776481	0.086014	0.474244	0.716752	1.075236	3.463358	5.315144	0.000000	0.000000	21.732423	-4.414905	-1.817212	20.297891	-10.347591	71.344287	42.254370	66.704564	22.132814	11.693917	21.127942	-4.686726	73.668062	41.786151	55.546582	8.554960	12.752674
0.192308	-0.642796	-4.243141	94.027705	0.186159	0.493232	0.978578	1.945474	1.378976	-9.401702	10.297165	0.179719	45.047862	14.794603	0.000000	2.137342	1.552117	-8.737691	11.650688	0.203343	44.661865	7.026409	0.000000	0.143042	0.317462	0.910164	0.265644	0.422224	0.967049	0.235004	0.771877	0.967049	0.163483	0.771877	0.796393	0.132829	0.647368	0.739508	0.081734	0.491748	0.682623	1.021736	3.591192	5.062058	0.000000	0.000000	21.341769	-4.217840	-0.885508	20.286209	-9.987263	71.090021	41.878068	66.649766	21.819556	10.781656	20.994668	-4.576123	73.159124	41.205254	54.570469	8.861889	11.492919
0.211538	-0.636460	-4.192500	93.785312	0.186264	0.493305	0.979149	1.877767	1.397484	-9.376817	10.078591	0.175905	45.144772	15.184543	0.000000	2.218916	1.561965	-8.734267	11.682135	0.203892	44.980219	6.974616	0.000000	0.137498	0.328192	0.874564	0.255348	0.436495	0.929225	0.225896	0.797966	0.929225	0.157147	0.797966	0.765244	0.127681	0.669249	0.710584	0.078566	0.508369	0.655923	0.982135	3.712572	4.864064	0.000000	0.000000	21.068506	-4.030960	-0.033631	20.101053	-9.590299	70.165129	41.544556	66.261671	20.949559	9.820027	20.922296	-4.427453	72.949061	40.404250	53.665586	9.283438	10.117275
0.230769	-0.620868	-4.127404	93.567409	0.186321	0.493453	0.979521	1.794544	1.421289	-9.387124	9.862794	0.172138	45.243810	15.587206	0.000000	2.262624	1.568833	-8.705127	11.671294	0.203703	45.326545	6.944197	0.000000	0.131377	0.338724	0.840214	0.243980	0.450503	0.892728	0.215839	0.823575	0.892728	0.150150	0.823575	0.735188	0.121996	0.690727	0.682674	0.075069	0.524684	0.630161	0.938410	3.831718	4.673021	0.000000	0.000000	20.787241	-3.857811	0.664625	19.781519	-9.189275	68.746095	41.154343	66.097011	19.642237	8.592479	20.984425	-4.294085	73.436037	39.423059	52.115538	9.548133	8.562247
0.250000	-0.600458	-4.046380	93.365076	0.186376	0.493668	0.979671	1.705131	1.450560	-9.375451	9.676180	0.168881	45.348793	15.942456	0.000000	2.266680	1.566011	-8.745166	11.637320	0.203110	45.709065	7.034350	0.000000	0.124296	0.348204	0.807335	0.230829	0.463111	0.857793	0.204205	0.846622	0.857793	0.142057	0.846622	0.706418	0.115421	0.710057	0.655959	0.071022	0.539367	0.605501	0.887831	3.938949	4.490153	0.000000	0.000000	20.511350	-3.694806	1.231172	19.368832	-8.829539	66.991997	40.755168	65.819521	17.735453	7.397968	21.018823	-4.231302	73.778376	38.398101	50.964265	9.608488	7.155012
0.269231	-0.578210	-3.947892	93.207120	0.186399	0.493943	0.979561	1.598479	1.482205	-9.366109	9.521081	0.166174	45.462669	16.243473	0.000000	2.218303	1.567564	-8.701566	11.571974	0.201969	46.069439	7.080112	0.000000	0.116841	0.355758	0.776883	0.216985	0.473158	0.825438	0.191958	0.864990	0.825438	0.133537	0.864990	0.679773	0.108498	0.725462	0.631217	0.066763	0.551069	0.582662	0.834582	4.024406	4.320790	0.000000	0.000000	20.245946	-3.545854	1.628034	18.846779	-8.556131	64.905035	40.331864	65.836134	15.398598	6.157699	21.005802	-4.267180	73.916556	37.350574	50.618853	9.406474	5.897678
0.288462	-0.545687	-3.836373	93.102779	0.186388	0.494243	0.979168	1.474295	1.524335	-9.393509	9.405913	0.164164	45.565557	16.476428	0.000000	2.120806	1.555310	-8.650161	11.491216	0.200560	46.396411	7.173876	0.000000	0.109516	0.362408	0.751381	0.203382	0.482002	0.798342	0.179924	0.881158	0.798342	0.125166	0.881158	0.657458	0.101697	0.739022	0.610497	0.062577	0.561369	0.563536	0.782262	4.099627	4.178955	0.000000	0.000000	20.017119	-3.428128	1.844907	18.179268	-8.404649	62.297534	39.901418	66.467412	12.908367	5.075210	20.892728	-4.449220	73.666276	36.351948	51.210743	8.861672	4.800350
0.307692	-0.507833	-3.717867	93.070380	0.186322	0.494532	0.978515	1.342418	1.569925	-9.450293	9.356936	0.163309	45.654759	16.594109	0.000000	1.979078	1.544186	-8.472221	11.403087	0.199021	46.630182	7.172385	0.000000	0.102852	0.367713	0.725744	0.191007	0.489058	0.771103	0.168976	0.894056	0.771103	0.117550	0.894056	0.635026	0.095509	0.749839	0.589667	0.058770	0.569587	0.544308	0.734663	4.159638	4.036373	0.000000	0.000000	19.840998	-3.332849	1.929448	17.480558	-8.434760	59.782066	39.409720	67.099158	10.363749	4.153654	20.662087	-4.835118	72.952291	35.433441	52.689957	7.985648	3.809463
0.326923	-0.469508	-3.588386	93.105752	0.186228	0.494749	0.977623	1.201037	1.615959	-9.515905	9.390910	0.163902	45.719398	16.543334	0.000000	1.786130	1.539287	-8.144335	11.318003	0.197536	46.728623	7.031886	0.000000	0.095414	0.369744	0.714971	0.177193	0.491759	0.759656	0.156756	0.898995	0.759656	0.109049	0.898995	0.625599	0.088601	0.753981	0.580914	0.054520	0.572733	0.536228	0.681532	4.182615	3.976453	0.000000	0.000000	19.741960	-3.295968	1.711188	16.600585	-8.672330	56.702724	38.886349	68.396766	7.923083	3.554080	20.462912	-5.707906	67.580390	35.411894	59.074609	6.268713	3.196461
0.346154	-0.413462	-3.472461	93.201409	0.186015	0.494921	0.976545	1.070021	1.670042	-9.614736	9.491694	0.165661	45.716965	16.351099	0.000000	1.574255	1.527084	-7.701452	11.244859	0.196260	46.661048	6.781237	0.000000	0.089238	0.373360	0.702793	0.165725	0.496569	0.746718	0.146610	0.907788	0.746718	0.101991	0.907788	0.614944	0.082867	0.761356	0.571020	0.050991	0.578335	0.527095	0.637421	4.223523	3.908725	0.000000	0.000000	19.745404	-3.334926	1.373325	15.805248	-9.135849	54.481579	38.196046	68.981642	5.606920	3.057374	20.201224	-6.456060	65.343963	34.609473	63.527900	4.291468	2.328995
0.365385	-0.332867	-3.372671	93.348003	0.185733	0.495003	0.975313	0.959311	1.741472	-9.742269	9.659194	0.168585	45.666015	16.057739	0.000000	1.357819	1.493703	-7.170147	11.192603	0.195348	46.450685	6.451666	0.000000	0.083936	0.379585	0.686486	0.155877	0.504848	0.729391	0.137898	0.922924	0.729391	0.095930	0.922924	0.600675	0.077943	0.774050	0.557770	0.047961	0.587978	0.514865	0.599546	4.293945	3.818030	0.000000	0.000000	19.860012	-3.388250	1.023996	15.068029	-9.797424	53.045125	37.307933	68.929456	3.496100	2.662860	19.840067	-7.111964	66.087481	33.153827	66.431142	2.100865	1.492136
